<?xml version="1.0" encoding="UTF-8" standalone="no"?>
<!DOCTYPE svg PUBLIC "-//W3C//DTD SVG 1.1//EN" "http://www.w3.org/Graphics/SVG/1.1/DTD/svg11.dtd">
<svg width="100%" height="100%" viewBox="0 0 972 930" version="1.1" xmlns="http://www.w3.org/2000/svg" xmlns:xlink="http://www.w3.org/1999/xlink" xml:space="preserve" xmlns:serif="http://www.serif.com/" style="fill-rule:evenodd;clip-rule:evenodd;stroke-linejoin:round;stroke-miterlimit:2;">
    <g transform="matrix(1,0,0,1,-14.3304,-35.4142)">
        <g transform="matrix(1.24951,0,0,1.24951,-221.045,-202.412)">
            <path d="M534.781,222.164C540.207,203.317 557.451,190.336 577.064,190.336C596.677,190.336 613.922,203.317 619.347,222.164L684.581,448.776L920.26,440.79C939.861,440.126 957.536,452.516 963.597,471.168C969.657,489.821 962.641,510.233 946.392,521.217L751.03,653.285L831.454,874.962C838.143,893.399 831.821,914.036 815.954,925.564C800.087,937.093 778.506,936.727 763.039,924.668L577.064,779.679L391.09,924.668C375.622,936.727 354.041,937.093 338.174,925.564C322.307,914.036 315.986,893.399 322.674,874.962L403.098,653.285L207.736,521.217C191.488,510.233 184.471,489.821 190.532,471.168C196.592,452.516 214.267,440.126 233.868,440.79L469.547,448.776L534.781,222.164Z"/>
        </g>
    </g>
</svg>
